{
    "asset" : {
        "generator" : "Khronos glTF Blender I/O v0.9.36",
        "version" : "2.0"
    },
    "scene" : 0,
    "scenes" : [
        {
            "name" : "Scene",
            "nodes" : [
                0,
                1,
                2,
                3,
                4,
                5,
                6,
                7,
                8,
                9,
                10
            ]
        }
    ],
    "nodes" : [
        {
            "mesh" : 0,
            "name" : "Plane"
        },
        {
            "mesh" : 1,
            "name" : "Plane.001",
            "rotation" : [
                0,
                -0.2717553675174713,
                0,
                0.9623663425445557
            ],
            "translation" : [
                -7.536913871765137,
                0.6587140560150146,
                -6.5540690422058105
            ]
        },
        {
            "mesh" : 2,
            "name" : "Cylinder",
            "rotation" : [
                0,
                -0.38886815309524536,
                0,
                0.9212934374809265
            ],
            "translation" : [
                -2.0431361198425293,
                1.0365303754806519,
                7.744739055633545
            ]
        },
        {
            "mesh" : 3,
            "name" : "Cylinder.001",
            "rotation" : [
                0,
                -0.38886815309524536,
                0,
                0.9212934374809265
            ],
            "translation" : [
                -3.122330665588379,
                0.5819792151451111,
                6.63621187210083
            ]
        },
        {
            "mesh" : 4,
            "name" : "Cylinder.002",
            "rotation" : [
                0,
                -0.38886815309524536,
                0,
                0.9212934374809265
            ],
            "translation" : [
                -4.1808085441589355,
                0.25207918882369995,
                5.54896354675293
            ]
        },
        {
            "mesh" : 5,
            "name" : "Cube",
            "scale" : [
                1,
                2.578115940093994,
                43.70000076293945
            ],
            "translation" : [
                -42.070953369140625,
                2.055966854095459,
                0
            ]
        },
        {
            "mesh" : 6,
            "name" : "Cube.001",
            "scale" : [
                1,
                2.578115940093994,
                43.70000076293945
            ],
            "translation" : [
                43.94194030761719,
                2.055966854095459,
                0
            ]
        },
        {
            "mesh" : 7,
            "name" : "Cube.002",
            "rotation" : [
                0,
                0.7071067690849304,
                0,
                0.7071068286895752
            ],
            "scale" : [
                1,
                2.578115940093994,
                43.70000076293945
            ],
            "translation" : [
                0.6751670837402344,
                2.055966854095459,
                -43.86344909667969
            ]
        },
        {
            "mesh" : 8,
            "name" : "Cube.003",
            "rotation" : [
                0,
                0.7071067690849304,
                0,
                0.7071068286895752
            ],
            "scale" : [
                1,
                2.578115940093994,
                43.70000076293945
            ],
            "translation" : [
                0.6751670837402344,
                2.055966854095459,
                43.525299072265625
            ]
        },
        {
            "mesh" : 9,
            "name" : "Plane.002"
        },
        {
            "mesh" : 10,
            "name" : "Cube.004",
            "translation" : [
                14.370048522949219,
                1.039751410484314,
                12.597869873046875
            ]
        }
    ],
    "meshes" : [
        {
            "name" : "Plane",
            "primitives" : [
                {
                    "attributes" : {
                        "POSITION" : 0,
                        "NORMAL" : 1,
                        "TEXCOORD_0" : 2
                    },
                    "indices" : 3
                }
            ]
        },
        {
            "name" : "Plane.001",
            "primitives" : [
                {
                    "attributes" : {
                        "POSITION" : 4,
                        "NORMAL" : 5,
                        "TEXCOORD_0" : 6
                    },
                    "indices" : 7
                }
            ]
        },
        {
            "name" : "Cylinder",
            "primitives" : [
                {
                    "attributes" : {
                        "POSITION" : 8,
                        "NORMAL" : 9,
                        "TEXCOORD_0" : 10
                    },
                    "indices" : 11
                }
            ]
        },
        {
            "name" : "Cylinder.001",
            "primitives" : [
                {
                    "attributes" : {
                        "POSITION" : 12,
                        "NORMAL" : 13,
                        "TEXCOORD_0" : 14
                    },
                    "indices" : 11
                }
            ]
        },
        {
            "name" : "Cylinder.002",
            "primitives" : [
                {
                    "attributes" : {
                        "POSITION" : 15,
                        "NORMAL" : 16,
                        "TEXCOORD_0" : 17
                    },
                    "indices" : 11
                }
            ]
        },
        {
            "name" : "Cube.001",
            "primitives" : [
                {
                    "attributes" : {
                        "POSITION" : 18,
                        "NORMAL" : 19,
                        "TEXCOORD_0" : 20
                    },
                    "indices" : 21
                }
            ]
        },
        {
            "name" : "Cube.002",
            "primitives" : [
                {
                    "attributes" : {
                        "POSITION" : 22,
                        "NORMAL" : 23,
                        "TEXCOORD_0" : 24
                    },
                    "indices" : 21
                }
            ]
        },
        {
            "name" : "Cube.003",
            "primitives" : [
                {
                    "attributes" : {
                        "POSITION" : 25,
                        "NORMAL" : 26,
                        "TEXCOORD_0" : 27
                    },
                    "indices" : 21
                }
            ]
        },
        {
            "name" : "Cube.004",
            "primitives" : [
                {
                    "attributes" : {
                        "POSITION" : 28,
                        "NORMAL" : 29,
                        "TEXCOORD_0" : 30
                    },
                    "indices" : 21
                }
            ]
        },
        {
            "name" : "Plane.002",
            "primitives" : [
                {
                    "attributes" : {
                        "POSITION" : 31,
                        "NORMAL" : 32,
                        "TEXCOORD_0" : 33
                    },
                    "indices" : 34
                }
            ]
        },
        {
            "name" : "Cube.005",
            "primitives" : [
                {
                    "attributes" : {
                        "POSITION" : 35,
                        "NORMAL" : 36,
                        "TEXCOORD_0" : 37
                    },
                    "indices" : 38
                }
            ]
        }
    ],
    "accessors" : [
        {
            "bufferView" : 0,
            "componentType" : 5126,
            "count" : 256,
            "max" : [
                45.80499267578125,
                0.5298354029655457,
                45.80499267578125
            ],
            "min" : [
                -45.80499267578125,
                0,
                -45.80499267578125
            ],
            "type" : "VEC3"
        },
        {
            "bufferView" : 1,
            "componentType" : 5126,
            "count" : 256,
            "type" : "VEC3"
        },
        {
            "bufferView" : 2,
            "componentType" : 5126,
            "count" : 256,
            "type" : "VEC2"
        },
        {
            "bufferView" : 3,
            "componentType" : 5123,
            "count" : 384,
            "type" : "SCALAR"
        },
        {
            "bufferView" : 4,
            "componentType" : 5126,
            "count" : 264,
            "max" : [
                1.000002145767212,
                1.6370935440063477,
                1.5028414726257324
            ],
            "min" : [
                -0.9999978542327881,
                -0.6370930075645447,
                -1.5028414726257324
            ],
            "type" : "VEC3"
        },
        {
            "bufferView" : 5,
            "componentType" : 5126,
            "count" : 264,
            "type" : "VEC3"
        },
        {
            "bufferView" : 6,
            "componentType" : 5126,
            "count" : 264,
            "type" : "VEC2"
        },
        {
            "bufferView" : 7,
            "componentType" : 5123,
            "count" : 396,
            "type" : "SCALAR"
        },
        {
            "bufferView" : 8,
            "componentType" : 5126,
            "count" : 48,
            "max" : [
                0.43080592155456543,
                1,
                0.43080592155456543
            ],
            "min" : [
                -0.4308062791824341,
                -1,
                -0.4308062791824341
            ],
            "type" : "VEC3"
        },
        {
            "bufferView" : 9,
            "componentType" : 5126,
            "count" : 48,
            "type" : "VEC3"
        },
        {
            "bufferView" : 10,
            "componentType" : 5126,
            "count" : 48,
            "type" : "VEC2"
        },
        {
            "bufferView" : 11,
            "componentType" : 5123,
            "count" : 84,
            "type" : "SCALAR"
        },
        {
            "bufferView" : 12,
            "componentType" : 5126,
            "count" : 48,
            "max" : [
                0.43080592155456543,
                1,
                0.43080592155456543
            ],
            "min" : [
                -0.4308062791824341,
                -1,
                -0.4308062791824341
            ],
            "type" : "VEC3"
        },
        {
            "bufferView" : 13,
            "componentType" : 5126,
            "count" : 48,
            "type" : "VEC3"
        },
        {
            "bufferView" : 14,
            "componentType" : 5126,
            "count" : 48,
            "type" : "VEC2"
        },
        {
            "bufferView" : 15,
            "componentType" : 5126,
            "count" : 48,
            "max" : [
                0.43080592155456543,
                1,
                0.43080592155456543
            ],
            "min" : [
                -0.4308062791824341,
                -1,
                -0.4308062791824341
            ],
            "type" : "VEC3"
        },
        {
            "bufferView" : 16,
            "componentType" : 5126,
            "count" : 48,
            "type" : "VEC3"
        },
        {
            "bufferView" : 17,
            "componentType" : 5126,
            "count" : 48,
            "type" : "VEC2"
        },
        {
            "bufferView" : 18,
            "componentType" : 5126,
            "count" : 24,
            "max" : [
                1,
                1,
                1
            ],
            "min" : [
                -1,
                -1,
                -1
            ],
            "type" : "VEC3"
        },
        {
            "bufferView" : 19,
            "componentType" : 5126,
            "count" : 24,
            "type" : "VEC3"
        },
        {
            "bufferView" : 20,
            "componentType" : 5126,
            "count" : 24,
            "type" : "VEC2"
        },
        {
            "bufferView" : 21,
            "componentType" : 5123,
            "count" : 36,
            "type" : "SCALAR"
        },
        {
            "bufferView" : 22,
            "componentType" : 5126,
            "count" : 24,
            "max" : [
                1,
                1,
                1
            ],
            "min" : [
                -1,
                -1,
                -1
            ],
            "type" : "VEC3"
        },
        {
            "bufferView" : 23,
            "componentType" : 5126,
            "count" : 24,
            "type" : "VEC3"
        },
        {
            "bufferView" : 24,
            "componentType" : 5126,
            "count" : 24,
            "type" : "VEC2"
        },
        {
            "bufferView" : 25,
            "componentType" : 5126,
            "count" : 24,
            "max" : [
                1,
                1,
                1
            ],
            "min" : [
                -1,
                -1,
                -1
            ],
            "type" : "VEC3"
        },
        {
            "bufferView" : 26,
            "componentType" : 5126,
            "count" : 24,
            "type" : "VEC3"
        },
        {
            "bufferView" : 27,
            "componentType" : 5126,
            "count" : 24,
            "type" : "VEC2"
        },
        {
            "bufferView" : 28,
            "componentType" : 5126,
            "count" : 24,
            "max" : [
                1,
                1,
                1
            ],
            "min" : [
                -1,
                -1,
                -1
            ],
            "type" : "VEC3"
        },
        {
            "bufferView" : 29,
            "componentType" : 5126,
            "count" : 24,
            "type" : "VEC3"
        },
        {
            "bufferView" : 30,
            "componentType" : 5126,
            "count" : 24,
            "type" : "VEC2"
        },
        {
            "bufferView" : 31,
            "componentType" : 5126,
            "count" : 147,
            "max" : [
                3.2995569705963135,
                2.334347724914551,
                -0.7141832113265991
            ],
            "min" : [
                1.2995569705963135,
                0.33434778451919556,
                -2.7141833305358887
            ],
            "type" : "VEC3"
        },
        {
            "bufferView" : 32,
            "componentType" : 5126,
            "count" : 147,
            "type" : "VEC3"
        },
        {
            "bufferView" : 33,
            "componentType" : 5126,
            "count" : 147,
            "type" : "VEC2"
        },
        {
            "bufferView" : 34,
            "componentType" : 5123,
            "count" : 252,
            "type" : "SCALAR"
        },
        {
            "bufferView" : 35,
            "componentType" : 5126,
            "count" : 512,
            "max" : [
                3.486455202102661,
                4.574015140533447,
                3.486455202102661
            ],
            "min" : [
                -3.486455202102661,
                -1,
                -3.486455202102661
            ],
            "type" : "VEC3"
        },
        {
            "bufferView" : 36,
            "componentType" : 5126,
            "count" : 512,
            "type" : "VEC3"
        },
        {
            "bufferView" : 37,
            "componentType" : 5126,
            "count" : 512,
            "type" : "VEC2"
        },
        {
            "bufferView" : 38,
            "componentType" : 5123,
            "count" : 876,
            "type" : "SCALAR"
        }
    ],
    "bufferViews" : [
        {
            "buffer" : 0,
            "byteLength" : 3072,
            "byteOffset" : 0
        },
        {
            "buffer" : 0,
            "byteLength" : 3072,
            "byteOffset" : 3072
        },
        {
            "buffer" : 0,
            "byteLength" : 2048,
            "byteOffset" : 6144
        },
        {
            "buffer" : 0,
            "byteLength" : 768,
            "byteOffset" : 8192
        },
        {
            "buffer" : 0,
            "byteLength" : 3168,
            "byteOffset" : 8960
        },
        {
            "buffer" : 0,
            "byteLength" : 3168,
            "byteOffset" : 12128
        },
        {
            "buffer" : 0,
            "byteLength" : 2112,
            "byteOffset" : 15296
        },
        {
            "buffer" : 0,
            "byteLength" : 792,
            "byteOffset" : 17408
        },
        {
            "buffer" : 0,
            "byteLength" : 576,
            "byteOffset" : 18200
        },
        {
            "buffer" : 0,
            "byteLength" : 576,
            "byteOffset" : 18776
        },
        {
            "buffer" : 0,
            "byteLength" : 384,
            "byteOffset" : 19352
        },
        {
            "buffer" : 0,
            "byteLength" : 168,
            "byteOffset" : 19736
        },
        {
            "buffer" : 0,
            "byteLength" : 576,
            "byteOffset" : 19904
        },
        {
            "buffer" : 0,
            "byteLength" : 576,
            "byteOffset" : 20480
        },
        {
            "buffer" : 0,
            "byteLength" : 384,
            "byteOffset" : 21056
        },
        {
            "buffer" : 0,
            "byteLength" : 576,
            "byteOffset" : 21440
        },
        {
            "buffer" : 0,
            "byteLength" : 576,
            "byteOffset" : 22016
        },
        {
            "buffer" : 0,
            "byteLength" : 384,
            "byteOffset" : 22592
        },
        {
            "buffer" : 0,
            "byteLength" : 288,
            "byteOffset" : 22976
        },
        {
            "buffer" : 0,
            "byteLength" : 288,
            "byteOffset" : 23264
        },
        {
            "buffer" : 0,
            "byteLength" : 192,
            "byteOffset" : 23552
        },
        {
            "buffer" : 0,
            "byteLength" : 72,
            "byteOffset" : 23744
        },
        {
            "buffer" : 0,
            "byteLength" : 288,
            "byteOffset" : 23816
        },
        {
            "buffer" : 0,
            "byteLength" : 288,
            "byteOffset" : 24104
        },
        {
            "buffer" : 0,
            "byteLength" : 192,
            "byteOffset" : 24392
        },
        {
            "buffer" : 0,
            "byteLength" : 288,
            "byteOffset" : 24584
        },
        {
            "buffer" : 0,
            "byteLength" : 288,
            "byteOffset" : 24872
        },
        {
            "buffer" : 0,
            "byteLength" : 192,
            "byteOffset" : 25160
        },
        {
            "buffer" : 0,
            "byteLength" : 288,
            "byteOffset" : 25352
        },
        {
            "buffer" : 0,
            "byteLength" : 288,
            "byteOffset" : 25640
        },
        {
            "buffer" : 0,
            "byteLength" : 192,
            "byteOffset" : 25928
        },
        {
            "buffer" : 0,
            "byteLength" : 1764,
            "byteOffset" : 26120
        },
        {
            "buffer" : 0,
            "byteLength" : 1764,
            "byteOffset" : 27884
        },
        {
            "buffer" : 0,
            "byteLength" : 1176,
            "byteOffset" : 29648
        },
        {
            "buffer" : 0,
            "byteLength" : 504,
            "byteOffset" : 30824
        },
        {
            "buffer" : 0,
            "byteLength" : 6144,
            "byteOffset" : 31328
        },
        {
            "buffer" : 0,
            "byteLength" : 6144,
            "byteOffset" : 37472
        },
        {
            "buffer" : 0,
            "byteLength" : 4096,
            "byteOffset" : 43616
        },
        {
            "buffer" : 0,
            "byteLength" : 1752,
            "byteOffset" : 47712
        }
    ],
    "buffers" : [
        {
            "byteLength" : 49464,
            "uri" : "data:application/octet-stream;base64,"
        }
    ]
}
